<?xml version="1.0" encoding="UTF-8" standalone="no"?>
<svg width="53px" height="53px" viewBox="0 0 53 53" version="1.1" xmlns="http://www.w3.org/2000/svg" xmlns:xlink="http://www.w3.org/1999/xlink">
    <!-- Generator: Sketch 3.6.1 (26313) - http://www.bohemiancoding.com/sketch -->
    <title>deleteButton</title>
    <desc>Created with Sketch.</desc>
    <defs></defs>
    <g id="SmartPhone" stroke="none" stroke-width="1" fill="none" fill-rule="evenodd">
        <g id="myArticle" transform="translate(-97.000000, -802.000000)">
            <rect id="Rectangle-37" x="-1" y="0" width="320" height="889"></rect>
            <g id="content" transform="translate(12.000000, 158.000000)">
                <g id="body" transform="translate(43.000000, 586.000000)"></g>
            </g>
            <g id="footer" transform="translate(97.000000, 802.000000)">
                <g id="deleteButton">
                    <circle id="Oval-3" fill="#478FE3" cx="26.5" cy="26.5" r="26.5"></circle>
                    <g id="delete" transform="translate(15.000000, 12.000000)" fill="#FFFFFF">
                        <path d="M1.64285714,26.6666667 C1.64285714,28.5 3.12142857,30 4.92857143,30 L18.0714286,30 C19.8785714,30 21.3571429,28.5 21.3571429,26.6666667 L21.3571429,6.66666667 L1.64285714,6.66666667 L1.64285714,26.6666667 L1.64285714,26.6666667 Z M23,1.66666667 L17.25,1.66666667 L15.6071429,0 L7.39285714,0 L5.75,1.66666667 L0,1.66666667 L0,5 L23,5 L23,1.66666667 L23,1.66666667 Z" id="Shape"></path>
                    </g>
                </g>
            </g>
        </g>
    </g>
</svg>