<?xml version="1.0" encoding="UTF-8" standalone="no"?>
<svg width="53px" height="53px" viewBox="0 0 53 53" version="1.1" xmlns="http://www.w3.org/2000/svg" xmlns:xlink="http://www.w3.org/1999/xlink">
    <!-- Generator: Sketch 3.6.1 (26313) - http://www.bohemiancoding.com/sketch -->
    <title>likeButton</title>
    <desc>Created with Sketch.</desc>
    <defs></defs>
    <g id="SmartPhone" stroke="none" stroke-width="1" fill="none" fill-rule="evenodd">
        <g id="Article" transform="translate(-134.000000, -1170.000000)">
            <rect id="Rectangle-37" x="-1" y="-1" width="320" height="1252"></rect>
            <g id="content" transform="translate(12.000000, 158.000000)">
                <g id="body" transform="translate(43.000000, 586.000000)"></g>
            </g>
            <g id="footer" transform="translate(61.000000, 1170.000000)">
                <g id="likeButton" transform="translate(73.000000, 0.000000)">
                    <circle id="Oval-3" fill="#F76969" cx="26.5" cy="26.5" r="26.5"></circle>
                    <g id="favorite-outline" transform="translate(10.000000, 13.000000)" fill="#FFFFFF">
                        <path d="M24,0 C21.1862069,0 18.3724138,1.33333333 16.5517241,3.5 C14.7310345,1.33333333 11.9172414,0 9.10344828,0 C3.97241379,0 0,4 0,9.16666667 C0,15.5 5.62758621,20.6666667 14.2344828,28.3333333 L16.5517241,30.5 L18.8689655,28.3333333 C27.3103448,20.5 33.1034483,15.3333333 33.1034483,9.16666667 C33.1034483,4 29.1310345,0 24,0 L24,0 Z M16.7172414,26 L16.5517241,26 L16.3862069,25.8333333 C8.44137931,18.6666667 3.31034483,14 3.31034483,9.16666667 C3.31034483,5.83333333 5.79310345,3.33333333 9.10344828,3.33333333 C11.5862069,3.33333333 14.0689655,5 15.062069,7.33333333 L18.2068966,7.33333333 C19.0344828,5 21.5172414,3.33333333 24,3.33333333 C27.3103448,3.33333333 29.7931034,5.83333333 29.7931034,9.16666667 C29.7931034,14 24.662069,18.6666667 16.7172414,26 L16.7172414,26 Z" id="Shape"></path>
                    </g>
                </g>
            </g>
        </g>
    </g>
</svg>